<svg xmlns="http://www.w3.org/2000/svg" version="1.1" xmlns:xlink="http://www.w3.org/1999/xlink" xmlns:svgjs="http://svgjs.dev/svgjs" viewBox="0 0 23.53744778387236 8.191748732007351"><g transform="matrix(1,0,0,1,6.106376279445815,2.034343379675551)"><g><path d=" M 1.1362829589843748 1.5009206542968745 Q 1.1362829589843748 1.5586977539062494 1.1516901855468749 1.5907961425781245 Q 1.167097412109375 1.6228945312499996 1.190208251953125 1.6395856933593744 Q 1.2133190917968748 1.6562768554687495 1.2402817382812499 1.6626965332031245 Q 1.267244384765625 1.6691162109374995 1.2903552246093748 1.6768198242187495 Q 1.3134660644531249 1.6845234374999996 1.328873291015625 1.698004760742187 Q 1.344280517578125 1.7114860839843744 1.344280517578125 1.7423005371093745 Q 1.344280517578125 1.9027924804687495 1.17865283203125 1.974050903320312 Q 1.013025146484375 2.0453093261718744 0.6997448730468749 2.0453093261718744 Q 0.548240478515625 2.0453093261718744 0.43076037597656247 2.027976196289062 Q 0.3132802734375 2.0106430664062493 0.23303430175781248 1.974050903320312 Q 0.15278833007812498 1.9374587402343744 0.11106042480468749 1.8796816406249994 Q 0.06933251953125 1.8219045410156245 0.06933251953125 1.7423005371093745 Q 0.06933251953125 1.7114860839843744 0.08473974609374998 1.698004760742187 Q 0.10014697265624999 1.6845234374999996 0.12261584472656249 1.677461791992187 Q 0.14508471679687499 1.6704001464843745 0.17140539550781247 1.6639804687499995 Q 0.19772607421875 1.6575607910156245 0.22019494628906247 1.641511596679687 Q 0.24266381835937498 1.6254624023437496 0.258071044921875 1.5946479492187495 Q 0.273478271484375 1.5638334960937494 0.273478271484375 1.5060563964843745 L 0.273478271484375 0.5379689941406245 Q 0.273478271484375 0.48147583007812456 0.258071044921875 0.4500194091796872 Q 0.24266381835937498 0.4185629882812496 0.22019494628906247 0.40251379394531206 Q 0.19772607421875 0.3864645996093745 0.17140539550781247 0.3800449218749997 Q 0.14508471679687499 0.3736252441406247 0.12261584472656249 0.3665635986328122 Q 0.10014697265624999 0.35950195312499966 0.08473974609374998 0.3460206298828121 Q 0.06933251953125 0.3325393066406246 0.06933251953125 0.3017248535156247 Q 0.06933251953125 0.22212084960937473 0.11106042480468749 0.16498571777343707 Q 0.15278833007812498 0.10785058593749963 0.23303430175781248 0.07125842285156225 Q 0.3132802734375 0.03466625976562465 0.43076037597656247 0.017333129882812326 Q 0.548240478515625 -4.440892098500626e-16 0.6997448730468749 -4.440892098500626e-16 Q 0.8563850097656249 -4.440892098500626e-16 0.9770749511718749 0.017333129882812326 Q 1.097764892578125 0.03466625976562465 1.1792947998046874 0.07125842285156225 Q 1.26082470703125 0.10785058593749963 1.3025526123046873 0.16498571777343707 Q 1.344280517578125 0.22212084960937473 1.344280517578125 0.3017248535156247 Q 1.344280517578125 0.3325393066406246 1.328873291015625 0.3460206298828121 Q 1.3134660644531249 0.35950195312499966 1.2909971923828123 0.3665635986328122 Q 1.2685283203125 0.3736252441406247 1.2415656738281249 0.3800449218749997 Q 1.2146030273437498 0.3864645996093745 1.1921341552734375 0.40251379394531206 Q 1.169665283203125 0.4185629882812496 1.1542580566406249 0.4500194091796872 Q 1.1388508300781248 0.48147583007812456 1.1388508300781248 0.5379689941406245 L 1.1362829589843748 1.5009206542968745 M 1.632126027832031 1.7538559570312495 Q 1.632126027832031 1.6896591796874993 1.6545948999023437 1.641511596679687 Q 1.6770637719726562 1.5933640136718745 1.7123719995117186 1.558055786132812 Q 1.7476802270507812 1.5227475585937496 1.7932599389648436 1.498994750976562 Q 1.8388396508789062 1.4752419433593746 1.8857032983398436 1.4611186523437496 Q 1.9325669458007813 1.4469953613281246 1.9755787866210937 1.441217651367187 Q 2.018590627441406 1.4354399414062495 2.050689016113281 1.4354399414062495 Q 2.0840713403320312 1.4354399414062495 2.1283671166992186 1.441217651367187 Q 2.172662893066406 1.4469953613281246 2.218884572753906 1.4611186523437496 Q 2.265106252441406 1.4752419433593746 2.310043996582031 1.498994750976562 Q 2.354981740722656 1.5227475585937496 2.3902899682617185 1.558055786132812 Q 2.425598195800781 1.5933640136718745 2.4467831323242186 1.641511596679687 Q 2.467968068847656 1.6896591796874993 2.467968068847656 1.7538559570312495 Q 2.467968068847656 1.8167687988281245 2.4467831323242186 1.8655583496093744 Q 2.425598195800781 1.9143479003906245 2.3902899682617185 1.9490141601562494 Q 2.354981740722656 1.9836804199218745 2.310043996582031 2.007433227539062 Q 2.265106252441406 2.0311860351562494 2.218884572753906 2.0453093261718744 Q 2.172662893066406 2.0594326171874995 2.1283671166992186 2.0652103271484368 Q 2.0840713403320312 2.0709880371093745 2.050689016113281 2.0709880371093745 Q 2.018590627441406 2.0709880371093745 1.9755787866210937 2.0652103271484368 Q 1.9325669458007813 2.0594326171874995 1.8857032983398436 2.0453093261718744 Q 1.8388396508789062 2.0311860351562494 1.7932599389648436 2.007433227539062 Q 1.7476802270507812 1.9836804199218745 1.7123719995117186 1.9490141601562494 Q 1.6770637719726562 1.9143479003906245 1.6545948999023437 1.866200317382812 Q 1.632126027832031 1.8180527343749995 1.632126027832031 1.7538559570312495 M 3.9344664111328123 0.8589528808593745 Q 3.9601451220703123 0.8075954589843746 3.980688090820312 0.7639416503906247 Q 4.001231059570312 0.7202878417968746 4.0230579638671875 0.6888314208984372 Q 4.044884868164062 0.6573749999999996 4.073131450195312 0.640041870117187 Q 4.101378032226562 0.6227087402343745 4.142463969726562 0.6227087402343745 Q 4.211796489257813 0.6227087402343745 4.2625119433593746 0.6528812255859371 Q 4.313227397460937 0.6830537109374997 4.345325786132812 0.7318432617187496 Q 4.377424174804688 0.7806328124999995 4.392831401367188 0.8441876220703122 Q 4.408238627929688 0.9077424316406246 4.408238627929688 0.9745070800781246 Q 4.408238627929688 1.0425556640624996 4.392831401367188 1.1067524414062495 Q 4.377424174804688 1.1709492187499997 4.345325786132812 1.220380737304687 Q 4.313227397460937 1.2698122558593745 4.2625119433593746 1.2999847412109369 Q 4.211796489257813 1.3301572265624995 4.142463969726562 1.3301572265624995 Q 4.101378032226562 1.3301572265624995 4.073131450195312 1.312824096679687 Q 4.044884868164062 1.2954909667968746 4.0230579638671875 1.264034545898437 Q 4.001231059570312 1.2325781249999994 3.980688090820312 1.189566284179687 Q 3.9601451220703123 1.1465544433593746 3.9344664111328123 1.0939130859374995 L 3.8009371142578123 1.0797897949218744 L 3.8009371142578123 1.5060563964843745 Q 3.8009371142578123 1.5625495605468744 3.8163443408203124 1.594005981445312 Q 3.8317515673828124 1.6254624023437496 3.8548624072265625 1.641511596679687 Q 3.8779732470703125 1.6575607910156245 3.904935893554687 1.6639804687499995 Q 3.9318985400390623 1.6704001464843745 3.9550093798828123 1.677461791992187 Q 3.978120219726562 1.6845234374999996 3.993527446289062 1.698004760742187 Q 4.008934672851562 1.7114860839843744 4.008934672851562 1.7423005371093745 Q 4.008934672851562 1.8219045410156245 3.9672067675781246 1.8796816406249994 Q 3.9254788623046872 1.9374587402343744 3.8445909228515625 1.974050903320312 Q 3.7637029833984372 2.0106430664062493 3.6462228808593746 2.027976196289062 Q 3.5287427783203125 2.0453093261718744 3.377238383789062 2.0453093261718744 Q 3.2257339892578125 2.0453093261718744 3.10825388671875 2.027976196289062 Q 2.9907737841796873 2.0106430664062493 2.9105278125 1.974050903320312 Q 2.8302818408203123 1.9374587402343744 2.788553935546875 1.8796816406249994 Q 2.7468260302734375 1.8219045410156245 2.7468260302734375 1.7423005371093745 Q 2.7468260302734375 1.7114860839843744 2.7622332568359376 1.698004760742187 Q 2.777640483398437 1.6845234374999996 2.80010935546875 1.677461791992187 Q 2.8225782275390623 1.6704001464843745 2.8488989062499996 1.6639804687499995 Q 2.8752195849609374 1.6575607910156245 2.8976884570312498 1.641511596679687 Q 2.9201573291015626 1.6254624023437496 2.935564555664062 1.5946479492187495 Q 2.950971782226562 1.5638334960937494 2.950971782226562 1.5060563964843745 L 2.950971782226562 0.5379689941406245 Q 2.950971782226562 0.48147583007812456 2.935564555664062 0.4500194091796872 Q 2.9201573291015626 0.4185629882812496 2.8976884570312498 0.40251379394531206 Q 2.8752195849609374 0.3864645996093745 2.8488989062499996 0.3800449218749997 Q 2.8225782275390623 0.3736252441406247 2.80010935546875 0.3665635986328122 Q 2.777640483398437 0.35950195312499966 2.7622332568359376 0.3460206298828121 Q 2.7468260302734375 0.3325393066406246 2.7468260302734375 0.3017248535156247 Q 2.7468260302734375 0.22212084960937473 2.788553935546875 0.16498571777343707 Q 2.8302818408203123 0.10785058593749963 2.9105278125 0.07125842285156225 Q 2.9907737841796873 0.03466625976562465 3.10825388671875 0.017333129882812326 Q 3.2257339892578125 -4.440892098500626e-16 3.377238383789062 -4.440892098500626e-16 L 4.431349467773437 -4.440892098500626e-16 Q 4.525076762695312 -4.440892098500626e-16 4.594409282226562 0.0513574218749997 Q 4.663741801757812 0.10271484374999962 4.709321513671874 0.1803929443359371 Q 4.754901225585938 0.2580710449218746 4.77737009765625 0.34794653320312463 Q 4.7998389697265615 0.43782202148437466 4.7998389697265615 0.5148581542968746 Q 4.7998389697265615 0.5662155761718746 4.783789775390625 0.6073015136718747 Q 4.767740581054687 0.6483874511718746 4.7388520312499995 0.6766340332031247 Q 4.709963481445312 0.7048806152343745 4.670803447265625 0.7202878417968746 Q 4.631643413085937 0.7356950683593746 4.586705668945312 0.7356950683593746 Q 4.546903666992187 0.7356950683593746 4.508385600585937 0.7222137451171871 Q 4.469867534179687 0.7087324218749995 4.435201274414062 0.6785599365234372 Q 4.400535014648437 0.6483874511718746 4.371646464843749 0.6002398681640622 Q 4.342757915039062 0.5520922851562495 4.3234988818359374 0.48275976562499956 L 4.3234988818359374 0.26834252929687463 L 3.8009371142578123 0.26834252929687463 L 3.8009371142578123 0.8730761718749995 L 3.9344664111328123 0.8589528808593745" fill="#f06449" fill-rule="nonzero"></path></g><g><path d=" M 0.07375447591145834 3.1140544042968745 Q 0.07259602864583334 3.109034466145833 0.07259602864583334 3.0943608007812493 Q 0.07259602864583334 3.079687135416666 0.08418050130208334 3.0653996191406243 Q 0.09576497395833335 3.051112102864583 0.12588460286458333 3.0457060156249995 Q 0.16449951171875002 3.0387553320312497 0.2703043619791667 3.0387553320312497 L 0.91517333984375 3.0387553320312497 Q 0.9738680013020834 3.0387553320312497 1.0097798665364583 3.0850932226562495 Q 1.0456917317708334 3.1314311132812493 1.0456917317708334 3.197848756510416 Q 1.0456917317708334 3.3121488867187496 0.9661450195312501 3.3121488867187496 Q 0.9167179361979167 3.3121488867187496 0.8977966308593751 3.2808708105468747 Q 0.8788753255208334 3.2495927343749997 0.8788753255208334 3.1990072037760413 Q 0.8788753255208334 3.148421673177083 0.8796476236979167 3.129886516927083 L 0.3583463541666667 3.129886516927083 L 0.3583463541666667 3.5152633072916664 L 0.6888899739583334 3.5152633072916664 Q 0.6942960611979168 3.509857220052083 0.7074251302083334 3.4835990820312497 Q 0.7437231445312501 3.4117753515624996 0.7591691080729167 3.4117753515624996 Q 0.8464388020833334 3.4117753515624996 0.8464388020833334 3.5600566015624997 Q 0.8464388020833334 3.623385052083333 0.828289794921875 3.669336793619791 Q 0.8101407877604168 3.7152885351562497 0.7707535807291667 3.7152885351562497 Q 0.7491292317708333 3.7152885351562497 0.7356140136718751 3.6990702734374996 Q 0.7220987955729167 3.6828520117187495 0.7089697265625 3.6496431901041664 Q 0.6958406575520834 3.6164343684895828 0.68811767578125 3.6040775976562496 L 0.3583463541666667 3.6040775976562496 L 0.3583463541666667 3.957017864583333 Q 0.3583463541666667 3.9909989843749996 0.376495361328125 4.005286500651041 Q 0.39464436848958334 4.019574016927083 0.42013020833333337 4.022277060546875 Q 0.4456160481770834 4.024980104166667 0.4533390299479167 4.027296998697916 Q 0.4741910807291667 4.031930787760416 0.4741910807291667 4.0504659440104165 Q 0.4741910807291667 4.069001100260416 0.47032958984375 4.079040976562499 Q 0.46646809895833335 4.089080852864583 0.457586669921875 4.096031536458333 Q 0.4487052408854167 4.102982220052083 0.44020996093750003 4.108002158203124 Q 0.4317146809895834 4.113022096354166 0.4162687174479167 4.116111289062499 Q 0.40082275390625005 4.119200481770833 0.39001057942708334 4.121131227213541 Q 0.3791984049479167 4.12306197265625 0.35989095052083336 4.123834270833333 Q 0.34058349609375005 4.124606569010417 0.3305436197916667 4.124606569010417 L 0.29965169270833336 4.124606569010417 Q 0.1868961588541667 4.124606569010417 0.16141031901041666 4.121517376302083 Q 0.07259602864583334 4.1114774999999995 0.07259602864583334 4.0535551367187495 Q 0.07259602864583334 4.026524700520833 0.1251123046875 4.019574016927083 Q 0.14982584635416668 4.015712526041666 0.15832112630208334 4.0118510351562495 Q 0.18844075520833334 3.9994942643229163 0.18844075520833334 3.957017864583333 L 0.18844075520833334 3.204027141927083 Q 0.18844075520833334 3.148421673177083 0.13051839192708334 3.1406986914062496 Q 0.11970621744791668 3.139154095052083 0.11043863932291667 3.137995647786458 Q 0.10117106119791668 3.1368372005208327 0.09499267578125001 3.135678753255208 Q 0.08881429036458334 3.1345203059895828 0.08649739583333334 3.1329757096354163 Q 0.08418050130208334 3.1314311132812493 0.08070515950520833 3.1287280696614577 Q 0.07722981770833334 3.126025026041666 0.07607137044270834 3.1225496842447913 Q 0.07491292317708334 3.119074342447916 0.07375447591145834 3.1140544042968745 M 1.3856419433593752 4.12306197265625 L 1.3192243001302084 4.123834270833333 Q 1.2180532389322918 4.123834270833333 1.1941119954427084 4.09294234375 Q 1.183299820963542 4.079040976562499 1.183299820963542 4.059347373046875 Q 1.183299820963542 4.03965376953125 1.1987457845052085 4.031930787760416 Q 1.2141917480468751 4.024207805989583 1.2331130533854169 4.0234355078125 Q 1.2520343587239584 4.022663209635416 1.2674803222656252 4.011464886067708 Q 1.2829262858072918 4.000266562499999 1.2829262858072918 3.975553020833333 L 1.2829262858072918 3.5940377213541663 Q 1.2829262858072918 3.5253031835937496 1.266321875 3.5090849218749995 Q 1.2497174641927085 3.4928666601562495 1.2385191406250002 3.4882328710937496 Q 1.2273208170572918 3.4835990820312497 1.2033795735677084 3.4766483984375 Q 1.179438330078125 3.4696977148437496 1.1643785156250002 3.4627470312499997 Q 1.149318701171875 3.4557963476562494 1.149318701171875 3.4418949804687493 Q 1.149318701171875 3.380111126302083 1.3153628092447918 3.380111126302083 Q 1.3856419433593752 3.380111126302083 1.404563248697917 3.404438518880208 Q 1.4234845540364585 3.428765911458333 1.4234845540364585 3.516807903645833 Q 1.4497426920572918 3.4503902604166665 1.5103680989583335 3.412547649739583 Q 1.5709935058593751 3.3747050390624995 1.6347081054687502 3.3747050390624995 Q 1.698422705078125 3.3747050390624995 1.7397406575520835 3.402121624348958 Q 1.781058610026042 3.429538209635416 1.781058610026042 3.4716284602864578 Q 1.781058610026042 3.5137187109374994 1.7540281738281251 3.538818401692708 Q 1.7269977376302084 3.563918092447916 1.6876105305989584 3.563918092447916 Q 1.6482233235677084 3.563918092447916 1.6200344401041669 3.543066041666666 Q 1.591845556640625 3.522213990885416 1.5833502766927086 3.489005169270833 Q 1.5632705240885418 3.4859159765624996 1.5501414550781252 3.4859159765624996 Q 1.429662939453125 3.4859159765624996 1.429662939453125 3.7631710221354164 L 1.429662939453125 3.975553020833333 Q 1.429662939453125 4.020346315104167 1.4794761718750002 4.0230493587239575 Q 1.5292894042968752 4.025752402343749 1.5292894042968752 4.062822714843749 Q 1.5292894042968752 4.105299114583333 1.4829515136718752 4.115338990885416 Q 1.4474257975260418 4.12306197265625 1.3856419433593752 4.12306197265625 M 2.3133110677083333 4.142369427083333 Q 2.1387716796875003 4.142369427083333 2.03219453125 4.032316936848958 Q 1.9256173828125 3.922264446614583 1.9256173828125 3.7531311458333327 Q 1.9256173828125 3.640375611979166 1.9819951497395834 3.5523336197916664 Q 2.038372916666667 3.464291627604166 2.1345240397135417 3.4175675878906246 Q 2.230675162760417 3.370843548177083 2.348836783854167 3.370843548177083 Q 2.5187423828125004 3.370843548177083 2.629181022135417 3.4766483984375 Q 2.7396196614583337 3.582453248697916 2.7396196614583337 3.7500419531249998 Q 2.7396196614583337 3.8658866796874998 2.6828557454427084 3.9558594173177077 Q 2.6260918294270836 4.045832154947917 2.5295545572916667 4.094100791015625 Q 2.43301728515625 4.142369427083333 2.3133110677083333 4.142369427083333 M 2.524534619140625 3.9786422135416664 Q 2.5890215169270836 3.9006400976562494 2.5890215169270836 3.7708940039062497 Q 2.5890215169270836 3.6411479101562496 2.5148808919270835 3.546927532552083 Q 2.4407402669270835 3.452707154947916 2.3245093912760417 3.452707154947916 Q 2.208278515625 3.452707154947916 2.14572236328125 3.5322538671874995 Q 2.0831662109375 3.611800579427083 2.0831662109375 3.7407743749999995 Q 2.0831662109375 3.869748170572916 2.156534537760417 3.9631962499999998 Q 2.2299028645833334 4.056644329427083 2.34497529296875 4.056644329427083 Q 2.460047721354167 4.056644329427083 2.524534619140625 3.9786422135416664 M 3.1297692545572917 4.12306197265625 L 3.063351611328125 4.123834270833333 Q 2.962180550130208 4.123834270833333 2.938239306640625 4.09294234375 Q 2.9274271321614584 4.079040976562499 2.9274271321614584 4.059347373046875 Q 2.9274271321614584 4.03965376953125 2.942873095703125 4.031930787760416 Q 2.9583190592447917 4.024207805989583 2.9772403645833334 4.0234355078125 Q 2.996161669921875 4.022663209635416 3.0116076334635418 4.011464886067708 Q 3.0270535970052084 4.000266562499999 3.0270535970052084 3.975553020833333 L 3.0270535970052084 3.53457076171875 Q 3.0270535970052084 3.489777467447916 2.9714481282552083 3.4805098893229163 Q 2.932833219401042 3.4743315039062495 2.9247240885416668 3.466994671223958 Q 2.9166149576822917 3.4596578385416663 2.9166149576822917 3.4407365332031246 Q 2.9166149576822917 3.421815227864583 2.9436453938802085 3.406369264322916 Q 2.989210986328125 3.3785665299479164 3.0583316731770833 3.3785665299479164 Q 3.1274523600260418 3.3785665299479164 3.1471459635416665 3.398260133463541 Q 3.1668395670572917 3.4179537369791664 3.1668395670572917 3.4859159765624996 Q 3.2726444173177085 3.3662097591145828 3.4579959798177082 3.3662097591145828 Q 3.6085941243489583 3.3662097591145828 3.67153642578125 3.448459514973958 Q 3.7344787272135416 3.530709270833333 3.7344787272135416 3.697525677083333 L 3.7344787272135416 3.975553020833333 Q 3.7344787272135416 4.020346315104167 3.7842919596354165 4.0230493587239575 Q 3.834105192057292 4.025752402343749 3.834105192057292 4.062822714843749 Q 3.834105192057292 4.10452681640625 3.786222705078125 4.115338990885416 Q 3.7506969889322916 4.12306197265625 3.6881408365885417 4.12306197265625 L 3.621723193359375 4.123834270833333 Q 3.520552132161458 4.123834270833333 3.496610888671875 4.09294234375 Q 3.4857987141927085 4.079040976562499 3.4857987141927085 4.059347373046875 Q 3.4857987141927085 4.03965376953125 3.501244677734375 4.031930787760416 Q 3.5166906412760417 4.024207805989583 3.5356119466145834 4.0234355078125 Q 3.554533251953125 4.022663209635416 3.569979215494792 4.011464886067708 Q 3.5854251790364584 4.000266562499999 3.5854251790364584 3.975553020833333 L 3.5854251790364584 3.750814251302083 Q 3.5854251790364584 3.607166790364583 3.552216357421875 3.540749147135416 Q 3.5151460449218748 3.465836223958333 3.4031628092447916 3.465836223958333 Q 3.268010628255208 3.465836223958333 3.2193558430989584 3.537659954427083 Q 3.1737902506510416 3.605622194010416 3.1737902506510416 3.7546757421874997 L 3.1737902506510416 3.975553020833333 Q 3.1737902506510416 4.020346315104167 3.2236034830729166 4.0230493587239575 Q 3.2734167154947915 4.025752402343749 3.2734167154947915 4.062822714843749 Q 3.2734167154947915 4.105299114583333 3.2263065266927082 4.115338990885416 Q 3.1923254069010416 4.12306197265625 3.1297692545572917 4.12306197265625 M 4.0829242187500006 3.4835990820312497 L 4.035814029947917 3.4843713802083327 Q 4.007238997395834 3.4843713802083327 3.994109928385417 3.4789652929687493 Q 3.9809808593750002 3.473559205729166 3.9809808593750002 3.456182496744791 Q 3.9809808593750002 3.4388057877604163 3.9960406738281256 3.4245182714843745 Q 4.01110048828125 3.410230755208333 4.030407942708334 3.4025077734374998 Q 4.083696516927084 3.3808834244791663 4.094122542317709 3.365823610026041 Q 4.104548567708334 3.350763795572916 4.125400618489584 3.299792115885416 Q 4.177144596354167 3.1723629166666663 4.211898014322917 3.1723629166666663 Q 4.229660872395834 3.1723629166666663 4.2323639160156254 3.2105916764322915 Q 4.235066959635417 3.2488204361979163 4.235453108723958 3.2689001888020828 Q 4.235839257812501 3.2889799414062497 4.235066959635417 3.328753297526041 Q 4.234294661458334 3.3685266536458327 4.234294661458334 3.3839726171874993 L 4.418101627604167 3.3847449153645828 Q 4.445132063802084 3.3847449153645828 4.463667220052084 3.398260133463541 Q 4.482202376302084 3.4117753515624996 4.482202376302084 3.4341719986979165 Q 4.482202376302084 3.456568645833333 4.4640533691406254 3.468925416666666 Q 4.445904361979167 3.4812821874999997 4.41887392578125 3.4812821874999997 L 4.234294661458334 3.4812821874999997 L 4.23352236328125 3.875926555989583 Q 4.23352236328125 4.043515260416666 4.3177028645833335 4.043515260416666 Q 4.340871809895834 4.043515260416666 4.38643740234375 4.029227744140624 Q 4.432002994791667 4.014940227864583 4.445904361979167 4.014940227864583 Q 4.477568587239584 4.014940227864583 4.477568587239584 4.0512382421875 Q 4.477568587239584 4.079813274739583 4.403041813151042 4.1083883072916665 Q 4.3285150390625 4.136963339843749 4.2501267740885424 4.136963339843749 Q 4.171738509114584 4.136963339843749 4.127331363932292 4.075951783854166 Q 4.0829242187500006 4.014940227864583 4.0829242187500006 3.915313763020833 L 4.0829242187500006 3.4835990820312497 M 4.668465250651042 3.760081829427083 Q 4.668465250651042 3.586314739583333 4.7762008463541665 3.4778068457031246 Q 4.8839364420572915 3.369298951822916 5.050752848307292 3.369298951822916 Q 5.182815836588542 3.369298951822916 5.273560872395834 3.4546379003906247 Q 5.364305908203125 3.539976848958333 5.364305908203125 3.6689506445312494 Q 5.364305908203125 3.7315067968749998 5.265451741536459 3.7315067968749998 L 4.818291097005209 3.7315067968749998 Q 4.819835693359376 3.8566191015624995 4.899382405598958 3.94234419921875 Q 4.9789291178385415 4.028069296875 5.100179931640625 4.028069296875 Q 5.180498942057292 4.028069296875 5.256184163411459 3.9809591080729163 Q 5.296343668619792 3.9562455664062495 5.307541992187501 3.9562455664062495 Q 5.318740315755209 3.9562455664062495 5.3330278320312505 3.967443889973958 Q 5.347315348307292 3.9786422135416664 5.347315348307292 3.9948604752604164 Q 5.347315348307292 4.037336874999999 5.292868326822917 4.073248740234375 Q 5.238421305338542 4.10916060546875 5.172775960286459 4.126537314453125 Q 5.107130615234375 4.1439140234375 5.0577035319010415 4.1439140234375 Q 4.8823918457031255 4.1439140234375 4.775428548177084 4.038881471354166 Q 4.668465250651042 3.933848919270833 4.668465250651042 3.760081829427083 M 5.222203043619792 3.65041548828125 Q 5.220658447265626 3.561601197916666 5.175865152994792 3.505995729166666 Q 5.131071858723958 3.4503902604166665 5.044960611979167 3.4503902604166665 Q 4.958849365234375 3.4503902604166665 4.894362467447917 3.512174114583333 Q 4.829875569661459 3.5739579687499994 4.8260140787760415 3.653504680989583 L 5.006731852213542 3.653504680989583 Q 5.127210367838542 3.653504680989583 5.222203043619792 3.65041548828125 M 5.7753075520833335 4.12306197265625 L 5.708889908854167 4.123834270833333 Q 5.60771884765625 4.123834270833333 5.583777604166667 4.09294234375 Q 5.572965429687501 4.079040976562499 5.572965429687501 4.059347373046875 Q 5.572965429687501 4.03965376953125 5.588411393229167 4.031930787760416 Q 5.603857356770834 4.024207805989583 5.622778662109376 4.0234355078125 Q 5.641699967447917 4.022663209635416 5.657145930989584 4.011464886067708 Q 5.672591894531251 4.000266562499999 5.672591894531251 3.975553020833333 L 5.672591894531251 3.53457076171875 Q 5.672591894531251 3.489777467447916 5.61698642578125 3.4805098893229163 Q 5.578371516927084 3.4743315039062495 5.570262386067709 3.466994671223958 Q 5.562153255208334 3.4596578385416663 5.562153255208334 3.4407365332031246 Q 5.562153255208334 3.421815227864583 5.589183691406251 3.406369264322916 Q 5.634749283854167 3.3785665299479164 5.703869970703125 3.3785665299479164 Q 5.772990657552084 3.3785665299479164 5.792684261067709 3.398260133463541 Q 5.8123778645833335 3.4179537369791664 5.8123778645833335 3.4859159765624996 Q 5.91818271484375 3.3662097591145828 6.10353427734375 3.3662097591145828 Q 6.254132421875001 3.3662097591145828 6.317074723307292 3.448459514973958 Q 6.380017024739584 3.530709270833333 6.380017024739584 3.697525677083333 L 6.380017024739584 3.975553020833333 Q 6.380017024739584 4.020346315104167 6.429830257161459 4.0230493587239575 Q 6.479643489583334 4.025752402343749 6.479643489583334 4.062822714843749 Q 6.479643489583334 4.10452681640625 6.431761002604167 4.115338990885416 Q 6.396235286458333 4.12306197265625 6.3336791341145835 4.12306197265625 L 6.267261490885417 4.123834270833333 Q 6.1660904296875 4.123834270833333 6.142149186197917 4.09294234375 Q 6.131337011718751 4.079040976562499 6.131337011718751 4.059347373046875 Q 6.131337011718751 4.03965376953125 6.146782975260417 4.031930787760416 Q 6.162228938802084 4.024207805989583 6.181150244140626 4.0234355078125 Q 6.200071549479167 4.022663209635416 6.215517513020834 4.011464886067708 Q 6.230963476562501 4.000266562499999 6.230963476562501 3.975553020833333 L 6.230963476562501 3.750814251302083 Q 6.230963476562501 3.607166790364583 6.197754654947917 3.540749147135416 Q 6.160684342447917 3.465836223958333 6.048701106770833 3.465836223958333 Q 5.91354892578125 3.465836223958333 5.864894140625 3.537659954427083 Q 5.819328548177084 3.605622194010416 5.819328548177084 3.7546757421874997 L 5.819328548177084 3.975553020833333 Q 5.819328548177084 4.020346315104167 5.869141780598959 4.0230493587239575 Q 5.918955013020834 4.025752402343749 5.918955013020834 4.062822714843749 Q 5.918955013020834 4.105299114583333 5.87184482421875 4.115338990885416 Q 5.837863704427084 4.12306197265625 5.7753075520833335 4.12306197265625 M 7.1559295572916675 3.4754899511718746 Q 7.095304150390626 3.4503902604166665 7.020391227213542 3.4503902604166665 Q 6.94547830403646 3.4503902604166665 6.892962027994793 3.493638958333333 Q 6.791018668619793 3.5778194596354163 6.791018668619793 3.742318971354166 Q 6.791018668619793 3.869748170572916 6.860139355468751 3.958176311848958 Q 6.9292600423177095 4.046604453125 7.0400848307291675 4.046604453125 Q 7.150909619140626 4.046604453125 7.199950553385418 4.0006527115885415 Q 7.248991487630209 3.954700970052083 7.248991487630209 3.8481238216145828 L 7.248991487630209 3.543066041666666 Q 7.216554964192709 3.5005896419270828 7.1559295572916675 3.4754899511718746 M 7.035837190755209 3.366982057291666 Q 7.0868088704427095 3.366982057291666 7.149751171875001 3.383586468098958 Q 7.212693473307293 3.4001908789062494 7.248991487630209 3.41872603515625 L 7.248991487630209 3.160006145833333 Q 7.248991487630209 3.0897270117187494 7.19338601888021 3.084320924479166 Q 7.187979931640626 3.0835486263020826 7.179484651692709 3.0827763281249996 Q 7.170989371744793 3.0820040299479166 7.1671278808593755 3.0816178808593744 Q 7.163266389973959 3.081231731770833 7.157474153645834 3.080073284505208 Q 7.151681917317709 3.0789148372395827 7.148978873697917 3.077370240885416 Q 7.146275830078126 3.0758256445312497 7.143958935546876 3.0735087499999993 Q 7.138552848307293 3.0688749609374995 7.138552848307293 3.051112102864583 Q 7.138552848307293 3.0333492447916663 7.162494091796876 3.014041790364583 Q 7.205742789713542 2.9785160742187493 7.279111116536459 2.9785160742187493 Q 7.3571132324218755 2.9785160742187493 7.370242301432293 2.9877836523437495 Q 7.396500439453126 3.0063188085937496 7.396500439453126 3.0364384374999993 L 7.396500439453126 3.8813326432291664 Q 7.396500439453126 3.967057740885416 7.4150355957031255 3.9925435807291665 Q 7.4343430501302095 4.017257122395833 7.449402864583334 4.022663209635416 Q 7.464462679036459 4.028069296875 7.475661002604167 4.031930787760416 Q 7.486859326171876 4.035792278645833 7.491493115234376 4.037723024088542 Q 7.496126904296876 4.03965376953125 7.503077587890626 4.04428755859375 Q 7.515434358723959 4.0512382421875 7.515434358723959 4.065911907552083 Q 7.515434358723959 4.098348430989583 7.481067089843751 4.113408245442708 Q 7.446699820963542 4.128468059895833 7.389935904947918 4.128468059895833 Q 7.333171988932293 4.128468059895833 7.307686149088543 4.1068437109375 Q 7.282200309244793 4.085219361979166 7.262892854817709 4.027296998697916 Q 7.199564404296876 4.139280234375 6.998766878255209 4.139280234375 Q 6.838128857421876 4.139280234375 6.737343945312501 4.0327030859374995 Q 6.636559033203126 3.9261259374999997 6.636559033203126 3.756220338541666 Q 6.636559033203126 3.586314739583333 6.748542268880209 3.4766483984375 Q 6.860525504557293 3.366982057291666 7.035837190755209 3.366982057291666 M 9.100082096354168 3.82649947265625 Q 9.16534129231771 3.7261007096354164 9.16534129231771 3.6040775976562496 Q 9.16534129231771 3.4820544856770828 9.13329091796875 3.403280071614583 Q 9.101240543619793 3.324505657552083 9.045248925781252 3.273920126953125 Q 8.98925730794271 3.2233345963541664 8.905076806640626 3.1916703710937497 Q 8.752161767578126 3.1329757096354163 8.506570947265626 3.1329757096354163 Q 8.39613230794271 3.1329757096354163 8.39613230794271 3.150738567708333 L 8.39613230794271 4.0133956315104165 Q 8.518155419921877 4.026524700520833 8.661416731770835 4.026524700520833 Q 8.804678043619793 4.026524700520833 8.919750472005209 3.976711468098958 Q 9.034822900390626 3.9268982356770827 9.100082096354168 3.82649947265625 M 9.293928938802084 3.3519222428385413 Q 9.337563785807292 3.438033489583333 9.337563785807292 3.5465413834635413 Q 9.337563785807292 3.6550492773437497 9.303968815104168 3.7488835058593746 Q 9.270373844401043 3.8427177343749994 9.210520735677084 3.911066123046875 Q 9.150667626953126 3.97941451171875 9.068031722005209 4.027296998697916 Q 8.90353221028646 4.123834270833333 8.678021142578126 4.123834270833333 Q 8.598474430338543 4.122289674479166 8.40076609700521 4.122289674479166 Q 8.203057763671875 4.122289674479166 8.173710432942709 4.116111289062499 Q 8.114243473307292 4.100665325520833 8.111926578776043 4.052782838541666 Q 8.111926578776043 4.025752402343749 8.16444285481771 4.01880171875 Q 8.189156396484377 4.015712526041666 8.197651676432292 4.0118510351562495 Q 8.227771305338543 3.9994942643229163 8.227771305338543 3.9562455664062495 L 8.227771305338543 3.204027141927083 Q 8.227771305338543 3.1453324804687495 8.169848942057293 3.1406986914062496 Q 8.121194156901042 3.1368372005208327 8.116560367838543 3.126025026041666 Q 8.111926578776043 3.1152128515624993 8.111926578776043 3.097449993489583 Q 8.111926578776043 3.079687135416666 8.123511051432294 3.0653996191406243 Q 8.135095524088543 3.051112102864583 8.165215152994794 3.0457060156249995 Q 8.20383006184896 3.0387553320312497 8.31040721028646 3.0387553320312497 L 8.54904734700521 3.0387553320312497 Q 8.957593082682292 3.0387553320312497 9.176153466796876 3.208660930989583 Q 9.250294091796876 3.26581099609375 9.293928938802084 3.3519222428385413 M 9.499885416666668 3.760081829427083 Q 9.499885416666668 3.586314739583333 9.607621012369792 3.4778068457031246 Q 9.715356608072918 3.369298951822916 9.882173014322918 3.369298951822916 Q 10.014236002604168 3.369298951822916 10.10498103841146 3.4546379003906247 Q 10.19572607421875 3.539976848958333 10.19572607421875 3.6689506445312494 Q 10.19572607421875 3.7315067968749998 10.096871907552085 3.7315067968749998 L 9.649711263020833 3.7315067968749998 Q 9.651255859375 3.8566191015624995 9.730802571614584 3.94234419921875 Q 9.810349283854167 4.028069296875 9.93160009765625 4.028069296875 Q 10.011919108072918 4.028069296875 10.087604329427084 3.9809591080729163 Q 10.127763834635418 3.9562455664062495 10.138962158203126 3.9562455664062495 Q 10.150160481770834 3.9562455664062495 10.164447998046876 3.967443889973958 Q 10.178735514322918 3.9786422135416664 10.178735514322918 3.9948604752604164 Q 10.178735514322918 4.037336874999999 10.124288492838543 4.073248740234375 Q 10.069841471354168 4.10916060546875 10.004196126302084 4.126537314453125 Q 9.938550781250001 4.1439140234375 9.889123697916668 4.1439140234375 Q 9.713812011718751 4.1439140234375 9.60684871419271 4.038881471354166 Q 9.499885416666668 3.933848919270833 9.499885416666668 3.760081829427083 M 10.053623209635418 3.65041548828125 Q 10.052078613281251 3.561601197916666 10.007285319010418 3.505995729166666 Q 9.962492024739584 3.4503902604166665 9.876380777994793 3.4503902604166665 Q 9.79026953125 3.4503902604166665 9.725782633463542 3.512174114583333 Q 9.661295735677085 3.5739579687499994 9.657434244791668 3.653504680989583 L 9.838152018229168 3.653504680989583 Q 9.958630533854167 3.653504680989583 10.053623209635418 3.65041548828125 M 10.483932307942709 3.3808834244791663 Q 10.704809586588542 3.3808834244791663 10.704809586588542 3.4349442968749995 Q 10.704809586588542 3.456568645833333 10.65576865234375 3.468925416666666 Q 10.60672771809896 3.4812821874999997 10.60672771809896 3.5021342382812497 Q 10.60672771809896 3.528392376302083 10.809842138671875 3.9701469335937496 Q 11.010639664713542 3.5214416927083327 11.010639664713542 3.505995729166666 Q 11.010639664713542 3.4905497656249995 10.995193701171877 3.4820544856770828 Q 10.979747737630209 3.473559205729166 10.96121258138021 3.468925416666666 Q 10.91255779622396 3.456568645833333 10.91255779622396 3.4349442968749995 Q 10.91255779622396 3.4094584570312496 10.96816326497396 3.3951709407552078 Q 11.02376873372396 3.3808834244791663 11.07242351888021 3.3808834244791663 Q 11.121078304036459 3.3808834244791663 11.158534765625001 3.3851310644531245 Q 11.195991227213543 3.3893787044270827 11.230358496093752 3.402121624348958 Q 11.26472576497396 3.414864544270833 11.26472576497396 3.4326274023437495 Q 11.26472576497396 3.466608522135416 11.21607097981771 3.473945354817708 Q 11.16741619466146 3.4812821874999997 11.150039485677084 3.4917082128906247 Q 11.13266277669271 3.5021342382812497 11.117216813151042 3.53457076171875 L 10.885527360026042 4.031930787760416 Q 10.85000164388021 4.110705201822916 10.841506363932293 4.11842818359375 Q 10.833011083984376 4.126151165364583 10.825288102213543 4.132329550781249 Q 10.811386735026042 4.142369427083333 10.792851578776043 4.142369427083333 Q 10.774316422526043 4.142369427083333 10.763890397135418 4.138121787109375 Q 10.753464371744792 4.133874147135416 10.747672135416668 4.13001265625 Q 10.741879899088543 4.126151165364583 10.734929215494793 4.114180543619791 Q 10.727978531901043 4.102209921875 10.726047786458334 4.097189983723958 Q 10.724117041015626 4.092170045572916 10.717166357421876 4.075951783854166 L 10.452268082682293 3.5368876562499993 Q 10.434505224609376 3.5005896419270828 10.420603857421876 3.4909359147135413 Q 10.406702490234377 3.4812821874999997 10.356889257812501 3.473945354817708 Q 10.307076025390627 3.466608522135416 10.307076025390627 3.431855104166666 Q 10.307076025390627 3.408686158854166 10.371562923177084 3.394784791666666 Q 10.436049820963543 3.3808834244791663 10.483932307942709 3.3808834244791663 M 11.379937207031253 3.760081829427083 Q 11.379937207031253 3.586314739583333 11.487672802734377 3.4778068457031246 Q 11.595408398437502 3.369298951822916 11.762224804687502 3.369298951822916 Q 11.894287792968752 3.369298951822916 11.985032828776044 3.4546379003906247 Q 12.075777864583335 3.539976848958333 12.075777864583335 3.6689506445312494 Q 12.075777864583335 3.7315067968749998 11.976923697916668 3.7315067968749998 L 11.529763053385418 3.7315067968749998 Q 11.531307649739585 3.8566191015624995 11.610854361979168 3.94234419921875 Q 11.690401074218752 4.028069296875 11.811651888020835 4.028069296875 Q 11.891970898437503 4.028069296875 11.967656119791668 3.9809591080729163 Q 12.007815625000003 3.9562455664062495 12.01901394856771 3.9562455664062495 Q 12.030212272135419 3.9562455664062495 12.04449978841146 3.967443889973958 Q 12.058787304687502 3.9786422135416664 12.058787304687502 3.9948604752604164 Q 12.058787304687502 4.037336874999999 12.004340283203128 4.073248740234375 Q 11.949893261718753 4.10916060546875 11.884247916666668 4.126537314453125 Q 11.818602571614585 4.1439140234375 11.769175488281252 4.1439140234375 Q 11.593863802083336 4.1439140234375 11.486900504557294 4.038881471354166 Q 11.379937207031253 3.933848919270833 11.379937207031253 3.760081829427083 M 11.933675000000003 3.65041548828125 Q 11.932130403645836 3.561601197916666 11.887337109375002 3.505995729166666 Q 11.842543815104168 3.4503902604166665 11.756432568359378 3.4503902604166665 Q 11.670321321614585 3.4503902604166665 11.605834423828126 3.512174114583333 Q 11.541347526041669 3.5739579687499994 11.537486035156252 3.653504680989583 L 11.718203808593753 3.653504680989583 Q 11.838682324218752 3.653504680989583 11.933675000000003 3.65041548828125 M 12.487551806640628 4.12306197265625 L 12.42113416341146 4.123834270833333 Q 12.319963102213544 4.123834270833333 12.296021858723961 4.09294234375 Q 12.285209684244794 4.079040976562499 12.285209684244794 4.059347373046875 Q 12.285209684244794 4.03965376953125 12.30065564778646 4.031930787760416 Q 12.316101611328127 4.024207805989583 12.334636767578127 4.0234355078125 Q 12.353171923828127 4.022663209635416 12.368617887369794 4.011464886067708 Q 12.38406385091146 4.000266562499999 12.38406385091146 3.975553020833333 L 12.38406385091146 3.160006145833333 Q 12.38406385091146 3.0897270117187494 12.328458382161461 3.084320924479166 Q 12.323052294921878 3.0835486263020826 12.31455701497396 3.0827763281249996 Q 12.306061735026043 3.0820040299479166 12.302200244140627 3.0816178808593744 Q 12.29833875325521 3.081231731770833 12.292546516927086 3.080073284505208 Q 12.286754280598961 3.0789148372395827 12.284051236979169 3.077370240885416 Q 12.281348193359378 3.0758256445312497 12.279031298828126 3.0735087499999993 Q 12.273625211588543 3.0688749609374995 12.273625211588543 3.051112102864583 Q 12.273625211588543 3.0333492447916663 12.297566455078128 3.014041790364583 Q 12.340815152994795 2.9785160742187493 12.41418347981771 2.9785160742187493 Q 12.492185595703127 2.9785160742187493 12.505314664713543 2.9877836523437495 Q 12.531572802734377 3.0063188085937496 12.531572802734377 3.0364384374999993 L 12.531572802734377 3.975553020833333 Q 12.531572802734377 4.020346315104167 12.581386035156251 4.0230493587239575 Q 12.631199267578127 4.025752402343749 12.631199267578127 4.062822714843749 Q 12.631199267578127 4.105299114583333 12.584861376953127 4.115338990885416 Q 12.549335660807294 4.12306197265625 12.487551806640628 4.12306197265625 M 13.19588824869792 4.142369427083333 Q 13.021348860677085 4.142369427083333 12.914771712239586 4.032316936848958 Q 12.808194563802086 3.922264446614583 12.808194563802086 3.7531311458333327 Q 12.808194563802086 3.640375611979166 12.86457233072917 3.5523336197916664 Q 12.920950097656252 3.464291627604166 13.017101220703127 3.4175675878906246 Q 13.113252343750002 3.370843548177083 13.231413964843751 3.370843548177083 Q 13.401319563802085 3.370843548177083 13.511758203125002 3.4766483984375 Q 13.622196842447918 3.582453248697916 13.622196842447918 3.7500419531249998 Q 13.622196842447918 3.8658866796874998 13.565432926432294 3.9558594173177077 Q 13.50866901041667 4.045832154947917 13.412131738281252 4.094100791015625 Q 13.315594466145836 4.142369427083333 13.19588824869792 4.142369427083333 M 13.407111800130211 3.9786422135416664 Q 13.471598697916669 3.9006400976562494 13.471598697916669 3.7708940039062497 Q 13.471598697916669 3.6411479101562496 13.397458072916669 3.546927532552083 Q 13.323317447916668 3.452707154947916 13.207086572265627 3.452707154947916 Q 13.090855696614586 3.452707154947916 13.028299544270835 3.5322538671874995 Q 12.965743391927086 3.611800579427083 12.965743391927086 3.7407743749999995 Q 12.965743391927086 3.869748170572916 13.039111718750002 3.9631962499999998 Q 13.11248004557292 4.056644329427083 13.227552473958335 4.056644329427083 Q 13.342624902343752 4.056644329427083 13.407111800130211 3.9786422135416664 M 14.478042236328129 3.767032513020833 Q 14.478042236328129 3.588631634114583 14.37455428059896 3.507540325520833 Q 14.320493408203127 3.465836223958333 14.245580485026045 3.465836223958333 Q 14.023930908203129 3.465836223958333 14.023930908203129 3.7152885351562497 L 14.023930908203129 3.969374635416666 Q 14.086487060546878 4.0504659440104165 14.239402099609379 4.0504659440104165 Q 14.350613037109378 4.0504659440104165 14.414327636718753 3.9705330826822913 Q 14.478042236328129 3.890600221354166 14.478042236328129 3.767032513020833 M 13.979909912109378 4.439704225260416 L 13.913492268880212 4.4404765234375 Q 13.812321207682295 4.4404765234375 13.78837996419271 4.409584596354167 Q 13.777567789713544 4.395683229166666 13.777567789713544 4.375989625651041 Q 13.777567789713544 4.356296022135417 13.793013753255211 4.348573040364583 Q 13.808459716796879 4.34085005859375 13.82738102213542 4.3400777604166665 Q 13.84630232747396 4.339305462239583 13.861748291015628 4.328107138671875 Q 13.877194254557295 4.316908815104166 13.877194254557295 4.2921952734375 L 13.877194254557295 3.595582317708333 Q 13.877194254557295 3.539976848958333 13.86908512369792 3.518738649088541 Q 13.860975992838545 3.49750044921875 13.832400960286462 3.486688274739583 Q 13.829311767578128 3.485143678385416 13.801509033203128 3.4789652929687493 Q 13.743586669921878 3.4650639257812497 13.743586669921878 3.440350384114583 Q 13.743586669921878 3.380111126302083 13.898818603515627 3.380111126302083 Q 13.964463948567712 3.380111126302083 13.990722086588544 3.3955570898437495 Q 14.016980224609378 3.411003053385416 14.016980224609378 3.4619747330729163 Q 14.016980224609378 3.477420696614583 14.016207926432294 3.485143678385416 Q 14.075674886067711 3.427221315104166 14.13591414388021 3.3971016861979164 Q 14.196153401692712 3.366982057291666 14.289601481119794 3.366982057291666 Q 14.383049560546878 3.366982057291666 14.46452701822917 3.419498333333333 Q 14.546004475911461 3.4720146093749995 14.587708577473961 3.5581258561197915 Q 14.629412679036461 3.644237102864583 14.629412679036461 3.7500419531249998 Q 14.629412679036461 3.917630657552083 14.519746337890629 4.026524700520833 Q 14.410079996744795 4.135418743489583 14.240946695963544 4.135418743489583 Q 14.145954020182295 4.135418743489583 14.023930908203129 4.072862591145833 L 14.023930908203129 4.2921952734375 Q 14.023930908203129 4.336988567708333 14.073744140625003 4.339691611328124 Q 14.123557373046879 4.342394654947916 14.123557373046879 4.379464967447916 Q 14.123557373046879 4.421941367187499 14.076447184244795 4.431981243489583 Q 14.042466064453128 4.439704225260416 13.979909912109378 4.439704225260416 M 14.77860524088542 3.760081829427083 Q 14.77860524088542 3.586314739583333 14.886340836588545 3.4778068457031246 Q 14.99407643229167 3.369298951822916 15.16089283854167 3.369298951822916 Q 15.29295582682292 3.369298951822916 15.383700862630212 3.4546379003906247 Q 15.474445898437503 3.539976848958333 15.474445898437503 3.6689506445312494 Q 15.474445898437503 3.7315067968749998 15.375591731770836 3.7315067968749998 L 14.928431087239586 3.7315067968749998 Q 14.929975683593753 3.8566191015624995 15.009522395833336 3.94234419921875 Q 15.08906910807292 4.028069296875 15.210319921875003 4.028069296875 Q 15.290638932291671 4.028069296875 15.366324153645836 3.9809591080729163 Q 15.406483658854171 3.9562455664062495 15.417681982421879 3.9562455664062495 Q 15.428880305989587 3.9562455664062495 15.443167822265629 3.967443889973958 Q 15.45745533854167 3.9786422135416664 15.45745533854167 3.9948604752604164 Q 15.45745533854167 4.037336874999999 15.403008317057296 4.073248740234375 Q 15.348561295572921 4.10916060546875 15.282915950520836 4.126537314453125 Q 15.217270605468753 4.1439140234375 15.16784352213542 4.1439140234375 Q 14.992531835937504 4.1439140234375 14.885568538411462 4.038881471354166 Q 14.77860524088542 3.933848919270833 14.77860524088542 3.760081829427083 M 15.33234303385417 3.65041548828125 Q 15.330798437500004 3.561601197916666 15.28600514322917 3.505995729166666 Q 15.241211848958336 3.4503902604166665 15.155100602213546 3.4503902604166665 Q 15.068989355468753 3.4503902604166665 15.004502457682294 3.512174114583333 Q 14.940015559895837 3.5739579687499994 14.93615406901042 3.653504680989583 L 15.116871842447921 3.653504680989583 Q 15.23735035807292 3.653504680989583 15.33234303385417 3.65041548828125 M 15.887764436848961 4.12306197265625 L 15.821346793619796 4.123834270833333 Q 15.720175732421879 4.123834270833333 15.696234488932296 4.09294234375 Q 15.68542231445313 4.079040976562499 15.68542231445313 4.059347373046875 Q 15.68542231445313 4.03965376953125 15.700868277994795 4.031930787760416 Q 15.716314241536463 4.024207805989583 15.735235546875003 4.0234355078125 Q 15.754156852213546 4.022663209635416 15.769602815755212 4.011464886067708 Q 15.78504877929688 4.000266562499999 15.78504877929688 3.975553020833333 L 15.78504877929688 3.5940377213541663 Q 15.78504877929688 3.5253031835937496 15.768444368489588 3.5090849218749995 Q 15.751839957682295 3.4928666601562495 15.740641634114587 3.4882328710937496 Q 15.729443310546879 3.4835990820312497 15.705502067057296 3.4766483984375 Q 15.681560823567713 3.4696977148437496 15.666501009114587 3.4627470312499997 Q 15.651441194661462 3.4557963476562494 15.651441194661462 3.4418949804687493 Q 15.651441194661462 3.380111126302083 15.81748530273438 3.380111126302083 Q 15.887764436848961 3.380111126302083 15.906685742187504 3.404438518880208 Q 15.925607047526045 3.428765911458333 15.925607047526045 3.516807903645833 Q 15.951865185546879 3.4503902604166665 16.01249059244792 3.412547649739583 Q 16.07311599934896 3.3747050390624995 16.136830598958337 3.3747050390624995 Q 16.200545198567713 3.3747050390624995 16.24186315104167 3.402121624348958 Q 16.283181103515627 3.429538209635416 16.283181103515627 3.4716284602864578 Q 16.283181103515627 3.5137187109374994 16.256150667317712 3.538818401692708 Q 16.229120231119797 3.563918092447916 16.189733024088547 3.563918092447916 Q 16.150345817057296 3.563918092447916 16.122156933593754 3.543066041666666 Q 16.09396805013021 3.522213990885416 16.085472770182296 3.489005169270833 Q 16.065393017578128 3.4859159765624996 16.052263948567713 3.4859159765624996 Q 15.931785432942712 3.4859159765624996 15.931785432942712 3.7631710221354164 L 15.931785432942712 3.975553020833333 Q 15.931785432942712 4.020346315104167 15.981598665364587 4.0230493587239575 Q 16.031411897786462 4.025752402343749 16.031411897786462 4.062822714843749 Q 16.031411897786462 4.105299114583333 15.985074007161462 4.115338990885416 Q 15.94954829101563 4.12306197265625 15.887764436848961 4.12306197265625" fill="#67d5e0" fill-rule="nonzero"></path></g><g clip-path="url(#SvgjsClipPath1018)"><g clip-path="url(#bb8227e98-5487-4b4e-8e47-3056cba64919a695a5b7-b672-4f3b-a703-74a9b5d4932f)"><path d=" M -0.5199999999999996 2.814964813177248 C -0.5200236664822429 2.7213520470508423 -0.5959058941035709 2.6454698194294735 -0.6895186602300223 2.64544615294718 C -0.7831279564484364 2.645469823788439 -0.8590040513078154 2.721355514713944 -0.8590158841095752 2.814964813177248 C -0.8590158841095752 2.9000885612518057 -0.7960358861637049 2.969906755026379 -0.7142347724259794 2.9819754203917728 L -0.7142347724259794 3.454132477830756 L -3.7796972115863774 3.454132477830756 C -3.798022514782316 3.4541442853591686 -3.8128784768506767 3.468990656748338 -3.812902118604129 3.4873159484979466 L -3.812902118604129 4.10995618686954 L -3.91453185661004 4.10995618686954 L -3.91453185661004 3.2954606109841498 L -2.588372029203216 3.2962966286559974 L -2.5883505928526556 3.2962966286559974 C -2.564866978232155 3.2962848010966486 -2.545832700900567 3.2772505237650593 -2.545820873341218 3.2537669091445585 L -2.545820873341218 2.1114666604925776 L -0.9724784876247181 2.1114666604925776 C -0.9489842474107375 2.1114666604925776 -0.9299487681132792 2.0924526175456797 -0.9299487681132792 2.068936940981139 L -0.9299487681132792 0.9195412602937318 C -0.8570437398580362 0.900591526398514 -0.8029598273946501 0.8349105482820591 -0.8029598273946501 0.7560890872722006 C -0.8047583018991586 0.6637591237919118 -0.880120291591 0.5898507976089145 -0.9724677694494375 0.5898507976089145 C -1.0648152473078762 0.5898507976089149 -1.1401772369997176 0.6637591237919125 -1.1419757115042257 0.7560890872722001 C -1.1419757115042257 0.8349105482820591 -1.0878917990408388 0.900591526398514 -1.0149867707855957 0.9195412602937318 L -1.0149867707855957 2.0264286578202606 L -2.545820873341217 2.0264286578202606 L -2.545820873341217 0.9575264734864073 L -1.5677873790320547 0.9575264734864073 C -1.5443145751686345 0.9575264734864073 -1.5252790958711762 0.9385124305395094 -1.5252790958711762 0.914996753974969 L -1.5252790958711762 -0.19058302616738787 C -1.5252734087240687 -0.20186063744968485 -1.5297494363479922 -0.21267829348178424 -1.5377219023186766 -0.22065477985890725 C -1.545694368289361 -0.2286312662360308 -1.5565097663157896 -0.23311274711280305 -1.5677873790320582 -0.23311274567882612 L -2.2906854289737066 -0.23311274567882612 L -2.2906854289737066 -0.5799100250417554 C -2.217780400718464 -0.598881195287533 -2.163696488255077 -0.6645836097545482 -2.163696488255077 -0.743383634413847 C -2.1654949627595856 -0.8357135978941354 -2.2408569524514275 -0.9096219240771335 -2.3332044303098654 -0.9096219240771327 C -2.4255519081683032 -0.9096219240771327 -2.500913897860145 -0.8357135978941354 -2.502712372364653 -0.743383634413847 C -2.502712372364653 -0.664583609754549 -2.448628459901266 -0.598881195287533 -2.375723431646023 -0.5799100250417554 L -2.375723431646023 -0.23311274567882656 L -3.715216669101292 -0.23311274567882656 C -3.726494281817561 -0.23311274711280183 -3.7373096798439884 -0.2286312662360288 -3.7452821458146723 -0.22065477985890491 C -3.7532546117853562 -0.2126782934817807 -3.757730639409279 -0.20186063744968086 -3.7577249522621705 -0.19058302616738743 L -3.7577249522621705 0.1987225363564189 C -3.830629980517414 0.2176937066021969 -3.8847138929808 0.2833961210692122 -3.8847138929808 0.36219614572851055 C -3.8836694679476556 0.45506925978177026 -3.8080849374493346 0.5298085671099777 -3.7152059509260122 0.5298085671099777 C -3.6223269644026894 0.5298085671099777 -3.5467424339043694 0.45506925978177026 -3.5456980088712244 0.36219614572851055 C -3.5456980088712244 0.2833961210692122 -3.599781921334611 0.2176937066021969 -3.6726869495898544 0.1987225363564189 L -3.6726869495898544 -0.1480747430065099 L -1.6103170985434931 -0.1480747430065099 L -1.6103170985434931 0.872488470814091 L -2.5883505928526556 0.872488470814091 C -2.599628204134949 0.8724827836669824 -2.6104458601670486 0.8769588112909048 -2.6184223465441727 0.8849312772615887 C -2.6263988329212964 0.8929037432322722 -2.630880313798069 0.9037191412587002 -2.630880312364094 0.914996753974969 L -2.630880312364094 3.21121575328256 L -3.9570401397709176 3.2103797356107124 L -3.957061576121478 3.2103797356107124 C -3.968344647334898 3.2103683443135473 -3.9791688677326174 3.214845483043649 -3.987147207966299 3.22282382327733 C -3.9951255481999803 3.2308021635110107 -3.9996026869300816 3.2416263839087307 -3.999591295632917 3.2529094551221505 L -3.999591295632917 4.10995618686954 L -4.099677616398495 4.10995618686954 L -4.099677616398495 3.055159121204298 L -2.7989841734571894 3.055159121204298 C -2.7755113695937697 3.055159121204298 -2.7564758902963113 3.0361450782574 -2.7564758902963113 3.01262940169286 L -2.7564758902963113 2.0885940744448432 C -2.7564702031492034 2.0773164631625463 -2.7609462307731265 2.0664988071304466 -2.7689186967438113 2.0585223207533234 C -2.7768911627144957 2.0505458343762006 -2.787706560740924 2.046064353499428 -2.7989841734571934 2.0460643549334048 L -3.0995003719606453 2.0460643549334048 L -3.0995003719606453 1.5732427706270555 C -3.0265953437054023 1.5543144730823983 -2.972511431242015 1.4886120586153826 -2.972511431242015 1.4097905976055243 C -2.9735558562751603 1.3169174835522641 -3.0491403867734803 1.2421781762240571 -3.1420193732968036 1.2421781762240571 C -3.234898359820126 1.2421781762240571 -3.3104828903184464 1.3169174835522646 -3.311527315351591 1.4097905976055243 C -3.311527315351591 1.4886120586153826 -3.257443402888205 1.5543144730823983 -3.1845383746329614 1.5732427706270555 L -3.1845383746329614 2.0460643549334048 L -4.075325922162106 2.0460643549334048 L -4.075325922162106 1.5732427706270555 C -4.002420893906863 1.5543144730823983 -3.948336981443477 1.4886120586153826 -3.948336981443477 1.4097905976055243 C -3.9493814064766215 1.3169174835522641 -4.024965936974942 1.2421781762240571 -4.117844923498264 1.2421781762240571 C -4.210723910021588 1.2421781762240571 -4.286308440519909 1.3169174835522646 -4.287352865553053 1.4097905976055243 C -4.287352865553053 1.4886120586153826 -4.233268953089666 1.5543144730823983 -4.160363924834423 1.5732427706270555 L -4.160363924834423 2.0885940744448432 C -4.160363924834423 2.1120883146588234 -4.141328445536964 2.1311023576057213 -4.117855641673544 2.1311023576057213 L -2.8415138929686274 2.1311023576057213 L -2.8415138929686274 2.9700996821814214 L -4.142207335909932 2.9700996821814214 C -4.153486918832617 2.9700996821814214 -4.164304519404848 2.974580479050774 -4.172280388978433 2.9825563486243594 C -4.180256258552019 2.9905322181979455 -4.184737055421372 3.001349818770176 -4.184737055421372 3.01262940169286 L -4.184737055421372 4.10995618686954 L -4.276870490129114 4.10995618686954 L -4.276870490129114 3.491067309845982 C -4.276864799673325 3.4797859834034988 -4.2813437691594824 3.46896507625111 -4.289320872602569 3.4609879728080184 C -4.297297976045654 3.4530108693649275 -4.308118883198041 3.448531899878761 -4.319400209640539 3.448537590334543 L -4.736079991829737 3.448537590334543 L -4.736079991829737 2.483258724608701 L -4.577944033747135 2.483258724608701 L -4.577944033747135 1.9449919620420584 L -4.736079991829737 1.9449919620420584 L -4.736079991829737 0.9647933963263158 C -4.65860902090517 0.9491448604173687 -4.600259274680304 0.8807414657797679 -4.600259274680304 0.7986831158353196 C -4.601303766277479 0.7057982098826614 -4.676897874659963 0.6310493786292579 -4.769788653085652 0.6310493786292584 C -4.862679431511341 0.6310493786292592 -4.938273539893826 0.7057982098826625 -4.939318031491 0.79868311583532 C -4.939318031491 0.8742676879105875 -4.889478516438533 0.9375906674654206 -4.821117994502052 0.9594343086862653 L -4.821117994502052 1.944991962042058 L -4.981654823847396 1.944991962042058 L -4.981654823847396 2.483258724608701 L -4.821117994502052 2.483258724608701 L -4.821117994502052 3.491067309845982 C -4.821117994502052 3.5145615500599625 -4.802082515204594 3.5335755930068595 -4.7785882749906134 3.5335755930068595 L -4.361929929151991 3.5335755930068595 L -4.361929929151991 4.110599277386346 C -4.402251704555728 4.113793293619816 -4.4339560670342655 4.1424322579682435 -4.4339560670342655 4.177737927340894 L -4.4339560670342655 4.964987901664269 C -4.4339560670342655 5.00237289704126 -4.398393161454893 5.032683896733384 -4.3545986972604025 5.032683896733384 L -3.7469210315798294 5.032683896733384 C -3.7031051310347785 5.032683896733384 -3.667563661805966 5.00237289704126 -3.667563661805966 4.964987901664269 L -3.667563661805966 4.177737927340894 C -3.667563661805966 4.140395804665025 -3.702890767529177 4.110213423076262 -3.7464923045686254 4.10999905957066 L -3.7464923045686254 3.5204994191651373 L -0.6810298654082283 3.5204994191651373 C -0.6627017856792561 3.5204994191651373 -0.6478463947410376 3.5056225918763575 -0.6478463947410376 3.4873159484979466 L -0.6478463947410376 2.9786956587560622 C -0.5744912031240297 2.9600674701192475 -0.5199999999999996 2.894107819445509 -0.5199999999999996 2.814964813177248" fill="#5d3eff" transform="matrix(1,0,0,1,0,0)" fill-rule="nonzero"></path></g></g></g><defs><clipPath id="SvgjsClipPath1018"><path d=" M -4.981654823847396 -0.9096219240771335 h 4.461654823847397 v 5.942305820810517 h -4.461654823847397 Z"></path></clipPath><clipPath id="bb8227e98-5487-4b4e-8e47-3056cba64919a695a5b7-b672-4f3b-a703-74a9b5d4932f"><path d=" M -5.003091174407598 -0.9343386452041156 L -0.4985636494397987 -0.9343386452041156 L -0.4985636494397987 5.054120247293584 L -5.003091174407598 5.054120247293584 Z"></path></clipPath></defs></svg>