<svg xmlns="http://www.w3.org/2000/svg" version="1.1" xmlns:xlink="http://www.w3.org/1999/xlink" xmlns:svgjs="http://svgjs.dev/svgjs" viewBox="0 0 3.4359407937623 1.4834499852701202"><g transform="matrix(1,0,0,1,1.7841984850524653,0.21072499263506017)"><g><path d=" M 0.5145 -2.220446049250313e-16 L 0.5145 0.029999999999999805 Q 0.4665 0.03149999999999986 0.44175000000000003 0.04124999999999979 Q 0.417 0.05099999999999971 0.40950000000000003 0.07724999999999982 Q 0.402 0.10349999999999981 0.402 0.1589999999999998 L 0.402 0.9029999999999998 Q 0.402 0.9569999999999999 0.41025 0.9839999999999999 Q 0.4185 1.011 0.4425 1.0199999999999998 Q 0.4665 1.029 0.5145 1.0319999999999998 L 0.5145 1.0619999999999998 Q 0.47400000000000003 1.059 0.41250000000000003 1.05825 Q 0.35100000000000003 1.0574999999999999 0.28800000000000003 1.0574999999999999 Q 0.2145 1.0574999999999999 0.15225 1.05825 Q 0.09 1.059 0.051000000000000004 1.0619999999999998 L 0.051000000000000004 1.0319999999999998 Q 0.099 1.029 0.123 1.0199999999999998 Q 0.147 1.011 0.15525 0.9839999999999999 Q 0.1635 0.9569999999999999 0.1635 0.9029999999999998 L 0.1635 0.1589999999999998 Q 0.1635 0.10349999999999981 0.15525 0.07724999999999982 Q 0.147 0.05099999999999971 0.12225 0.04124999999999979 Q 0.0975 0.03149999999999986 0.051000000000000004 0.029999999999999805 L 0.051000000000000004 -2.220446049250313e-16 Q 0.09 0.0014999999999998348 0.15225 0.0029999999999998916 Q 0.2145 0.0044999999999997264 0.28800000000000003 0.0044999999999997264 Q 0.35100000000000003 0.0044999999999997264 0.41250000000000003 0.0029999999999998916 Q 0.47400000000000003 0.0014999999999998348 0.5145 -2.220446049250313e-16 M 1.43246484375 -2.220446049250313e-16 Q 1.42646484375 0.06749999999999978 1.4242148437500002 0.13049999999999984 Q 1.42196484375 0.19349999999999978 1.42196484375 0.22799999999999987 Q 1.42196484375 0.2609999999999998 1.4234648437500002 0.2909999999999998 Q 1.42496484375 0.32099999999999984 1.42646484375 0.34199999999999986 L 1.39196484375 0.34199999999999986 Q 1.37246484375 0.22499999999999987 1.33796484375 0.15824999999999978 Q 1.30346484375 0.0914999999999998 1.25321484375 0.06299999999999983 Q 1.20296484375 0.03449999999999975 1.13396484375 0.03449999999999975 L 1.0844648437500002 0.03449999999999975 Q 1.04096484375 0.03449999999999975 1.01846484375 0.041999999999999815 Q 0.9959648437499999 0.04949999999999988 0.9884648437500001 0.07199999999999984 Q 0.98096484375 0.0944999999999998 0.98096484375 0.1409999999999998 L 0.98096484375 0.8939999999999998 Q 0.98096484375 0.9524999999999998 0.99296484375 0.9809999999999999 Q 1.00496484375 1.0094999999999998 1.03946484375 1.0184999999999997 Q 1.07396484375 1.0274999999999999 1.1414648437500001 1.029 L 1.1414648437500001 1.0619999999999998 Q 1.0949648437500001 1.0604999999999998 1.02146484375 1.059 Q 0.94796484375 1.0574999999999999 0.86696484375 1.0574999999999999 Q 0.80246484375 1.0574999999999999 0.74096484375 1.059 Q 0.67946484375 1.0604999999999998 0.6299648437500001 1.0619999999999998 L 0.6299648437500001 1.0319999999999998 Q 0.67796484375 1.029 0.70196484375 1.0199999999999998 Q 0.72596484375 1.011 0.73421484375 0.9839999999999999 Q 0.74246484375 0.9569999999999999 0.74246484375 0.9029999999999998 L 0.74246484375 0.1589999999999998 Q 0.74246484375 0.10349999999999981 0.73421484375 0.07724999999999982 Q 0.72596484375 0.05099999999999971 0.70121484375 0.04124999999999979 Q 0.67646484375 0.03149999999999986 0.6299648437500001 0.029999999999999805 L 0.6299648437500001 -2.220446049250313e-16 Q 0.71096484375 0.0014999999999998348 0.80546484375 0.0029999999999998916 Q 0.8999648437500001 0.0044999999999997264 0.98396484375 0.0044999999999997264 Q 1.06796484375 0.0044999999999997264 1.1189648437500002 0.0044999999999997264 Q 1.18796484375 0.0044999999999997264 1.2757148437499999 0.00374999999999992 Q 1.36346484375 0.0029999999999998916 1.43246484375 -2.220446049250313e-16 M 1.20896484375 0.5189999999999998 Q 1.20896484375 0.5189999999999998 1.20896484375 0.5339999999999998 Q 1.20896484375 0.5489999999999998 1.20896484375 0.5489999999999998 L 0.93596484375 0.5489999999999998 Q 0.93596484375 0.5489999999999998 0.93596484375 0.5339999999999998 Q 0.93596484375 0.5189999999999998 0.93596484375 0.5189999999999998 L 1.20896484375 0.5189999999999998 M 1.24646484375 0.32099999999999984 Q 1.2404648437499999 0.40649999999999986 1.24121484375 0.4514999999999998 Q 1.24196484375 0.49649999999999983 1.24196484375 0.5339999999999998 Q 1.24196484375 0.5714999999999999 1.24346484375 0.6164999999999998 Q 1.24496484375 0.6614999999999998 1.25096484375 0.7469999999999999 L 1.21646484375 0.7469999999999999 Q 1.20746484375 0.6944999999999999 1.18796484375 0.6494999999999997 Q 1.16846484375 0.6044999999999998 1.1309648437500002 0.5767499999999999 Q 1.09346484375 0.5489999999999998 1.03346484375 0.5489999999999998 L 1.03346484375 0.5189999999999998 Q 1.09346484375 0.5189999999999998 1.1294648437500001 0.48599999999999977 Q 1.1654648437500001 0.45299999999999985 1.18421484375 0.4072499999999998 Q 1.20296484375 0.3614999999999998 1.2119648437500001 0.32099999999999984 L 1.24646484375 0.32099999999999984" fill="#302e30" fill-rule="nonzero"></path></g><g></g><g clip-path="url(#SvgjsClipPath1001)"><g clip-path="url(#a506ef56c-9181-465a-94c4-420f493efbe37edadc5f-7fea-4933-a38a-3b3e614b7155)"><path d=" M -0.4086649467239398 0.7513265659814813 L -1.590709476296053 0.7513265659814813 L -1.590709476296053 0.03475369646499152 C -1.590700331742233 0.006035227383789275 -1.5674216972578452 -0.017243407100595055 -1.5387032281766468 -0.01725255165441064 L -0.46067119484334196 -0.01725255165441064 C -0.43195272576214383 -0.017243407100592925 -0.40867409127775756 0.006035227383793328 -0.4086649467239398 0.03475369646499163 Z" fill="#5a5758" transform="matrix(1,0,0,1,0,0)" fill-rule="nonzero"></path></g><g clip-path="url(#a506ef56c-9181-465a-94c4-420f493efbe37edadc5f-7fea-4933-a38a-3b3e614b7155)"><path d=" M -0.4086649467239398 0.7513265659814813 L -1.590709476296053 0.7513265659814813 L -1.590709476296053 0.03475369646499152 C -1.590700331742233 0.006035227383789275 -1.5674216972578452 -0.017243407100595055 -1.5387032281766468 -0.01725255165441064 L -0.46067119484334196 -0.01725255165441064 C -0.43195272576214383 -0.017243407100592925 -0.40867409127775756 0.006035227383793328 -0.4086649467239398 0.03475369646499163 Z" fill="none" transform="matrix(1,0,0,1,0,0)" fill-rule="nonzero" stroke-dasharray="none" stroke-miterlimit="10" stroke-linejoin="miter" stroke-linecap="butt" stroke-width="0.01732989344787978" stroke="#231f20"></path></g><g clip-path="url(#a506ef56c-9181-465a-94c4-420f493efbe37edadc5f-7fea-4933-a38a-3b3e614b7155)"><path d=" M -1.5907260440718158 0.7513265659814813 L -0.40868151449970247 0.7513265659814813 L -0.40868151449970247 0.8187408455602794 C -0.4086815140717075 0.847463102517588 -0.43196550411188905 0.8707470932516865 -0.4606877618441514 0.8707470936796815 L -1.5387197959524137 0.8707470936796815 C -1.552512710528366 0.8707470936796815 -1.5657407032327306 0.8652678796985613 -1.575493766661713 0.8555148162695788 C -1.5852468300906957 0.8457617528405962 -1.5907260440718158 0.8325337601362316 -1.5907260440718158 0.8187408455602794 Z" fill="#ffffff" transform="matrix(1,0,0,1,0,0)" fill-rule="nonzero"></path></g><g clip-path="url(#a506ef56c-9181-465a-94c4-420f493efbe37edadc5f-7fea-4933-a38a-3b3e614b7155)"><path d=" M -1.5907260440718158 0.7513265659814813 L -0.40868151449970247 0.7513265659814813 L -0.40868151449970247 0.8187408455602794 C -0.4086815140717075 0.847463102517588 -0.43196550411188905 0.8707470932516865 -0.4606877618441514 0.8707470936796815 L -1.5387197959524137 0.8707470936796815 C -1.552512710528366 0.8707470936796815 -1.5657407032327306 0.8652678796985613 -1.575493766661713 0.8555148162695788 C -1.5852468300906957 0.8457617528405962 -1.5907260440718158 0.8325337601362316 -1.5907260440718158 0.8187408455602794 Z" fill="none" transform="matrix(1,0,0,1,0,0)" fill-rule="nonzero" stroke-dasharray="none" stroke-miterlimit="10" stroke-linejoin="miter" stroke-linecap="butt" stroke-width="0.01732989344787978" stroke="#231f20"></path></g><g clip-path="url(#SvgjsClipPath10007edadc5f-7fea-4933-a38a-3b3e614b7155)"><path d=" M -1.0626309916767838 0.8110319956728836 L -0.9367490314310949 0.8110319956728836" fill="none" transform="matrix(1,0,0,1,0,0)" fill-rule="nonzero" stroke-dasharray="none" stroke-miterlimit="10" stroke-linejoin="miter" stroke-linecap="butt" stroke-width="0.01732989344787978" stroke="#231f20"></path></g><g clip-path="url(#SvgjsClipPath10007edadc5f-7fea-4933-a38a-3b3e614b7155)"><path d=" M -1.5299057392466087 0.6897772790227112 L -1.4928933281925327 0.6897772790227112 L -1.4928933281925327 0.08432448154726324 L -1.5299057392466087 0.08432448154726324 Z" fill="#d3d2d2" transform="matrix(1,0,0,1,0,0)" fill-rule="nonzero" stroke-dasharray="none" stroke-miterlimit="10" stroke-linejoin="miter" stroke-linecap="butt" stroke-width="0.01732989344787978" stroke="#231f20"></path></g><g clip-path="url(#SvgjsClipPath10007edadc5f-7fea-4933-a38a-3b3e614b7155)"><path d=" M -1.5299057392466087 0.08255172954064462 L -0.469485251549147 0.08255172954064462 L -0.469485251549147 0.04553931848656864 L -1.5299057392466087 0.04553931848656864 Z" fill="#d3d2d2" transform="matrix(1,0,0,1,0,0)" fill-rule="nonzero" stroke-dasharray="none" stroke-miterlimit="10" stroke-linejoin="miter" stroke-linecap="butt" stroke-width="0.017313325672116988" stroke="#231f20"></path></g><g clip-path="url(#SvgjsClipPath10007edadc5f-7fea-4933-a38a-3b3e614b7155)"><path d=" M -1.4929013458563019 0.09072957585371634 L -1.4929013458563019 0.0470237833914727" fill="none" transform="matrix(1,0,0,1,0,0)" fill-rule="nonzero" stroke-dasharray="none" stroke-miterlimit="10" stroke-linejoin="miter" stroke-linecap="butt" stroke-width="0.01732989344787978" stroke="#231f20"></path></g><g clip-path="url(#SvgjsClipPath10007edadc5f-7fea-4933-a38a-3b3e614b7155)"><path d=" M -1.500812725007147 0.07464890050179301 L -1.5220029102077572 0.07464890050179301 L -1.5220029102077572 0.05345871530118282 L -1.500812725007147 0.05345871530118282 Z" fill="#67c5f0" transform="matrix(1,0,0,1,0,0)" fill-rule="nonzero"></path></g><g clip-path="url(#SvgjsClipPath10007edadc5f-7fea-4933-a38a-3b3e614b7155)"><path d=" M -0.469485251549147 0.6897772790227112 L -1.4928933281925327 0.6897772790227112 L -1.4928933281925327 0.08432448154726324 L -0.469485251549147 0.08432448154726324 Z" fill="#ffffff" transform="matrix(1,0,0,1,0,0)" fill-rule="nonzero" stroke-dasharray="none" stroke-miterlimit="10" stroke-linejoin="miter" stroke-linecap="butt" stroke-width="0.01732989344787978" stroke="#231f20"></path></g><g clip-path="url(#SvgjsClipPath10007edadc5f-7fea-4933-a38a-3b3e614b7155)"><path d=" M -1.4929013458563019 0.17400770892071987 L -0.4694932692129161 0.17400770892071987" fill="none" transform="matrix(1,0,0,1,0,0)" fill-rule="nonzero" stroke-dasharray="none" stroke-miterlimit="10" stroke-linejoin="miter" stroke-linecap="butt" stroke-width="0.01732989344787978" stroke="#231f20"></path></g><g clip-path="url(#SvgjsClipPath10007edadc5f-7fea-4933-a38a-3b3e614b7155)"><path d=" M -1.3082033199076388 0.08608230313407156 L -1.3082033199076388 0.17400748910720543" fill="none" transform="matrix(1,0,0,1,0,0)" fill-rule="nonzero" stroke-dasharray="none" stroke-miterlimit="10" stroke-linejoin="miter" stroke-linecap="butt" stroke-width="0.01732989344787978" stroke="#231f20"></path></g><g clip-path="url(#SvgjsClipPath10007edadc5f-7fea-4933-a38a-3b3e614b7155)"><path d=" M -1.2742061590494886 0.1300450060273957 L -0.503175010600704 0.1300450060273957" fill="none" transform="matrix(1,0,0,1,0,0)" fill-rule="nonzero" stroke-dasharray="none" stroke-miterlimit="10" stroke-linejoin="miter" stroke-linecap="butt" stroke-width="0.01732989344787978" stroke="#231f20"></path></g><g clip-path="url(#SvgjsClipPath10007edadc5f-7fea-4933-a38a-3b3e614b7155)"><path d=" M -1.4401746657153307 0.14052237693465158 L -1.461364850915941 0.14052237693465158 L -1.461364850915941 0.11933219173404139 L -1.4401746657153307 0.11933219173404139 Z M -1.390984939475603 0.14052237693465158 L -1.4121751246762133 0.14052237693465158 L -1.4121751246762133 0.11933219173404139 L -1.390984939475603 0.11933219173404139 Z M -1.3418117810116383 0.14052237693465158 L -1.3630019662122483 0.14052237693465158 L -1.3630019662122483 0.11933219173404139 L -1.3418117810116383 0.11933219173404139 Z" fill="#231f20" transform="matrix(1,0,0,1,0,0)" fill-rule="nonzero"></path></g><g clip-path="url(#SvgjsClipPath10007edadc5f-7fea-4933-a38a-3b3e614b7155)"><path d=" M -0.5266606457065399 0.42797328641908194 L -1.435701366259377 0.42797328641908194 L -1.435701366259377 0.2820608852761783 L -0.5266606457065399 0.2820608852761783 Z" fill="#f03f52" transform="matrix(1,0,0,1,0,0)" fill-rule="nonzero"></path></g><g clip-path="url(#SvgjsClipPath10007edadc5f-7fea-4933-a38a-3b3e614b7155)"><path d=" M -1.230417418236579 0.47552127186772675 L -0.5266680071604899 0.47552127186772675" fill="none" transform="matrix(1,0,0,1,0,0)" fill-rule="nonzero" stroke-dasharray="none" stroke-miterlimit="10" stroke-linejoin="miter" stroke-linecap="butt" stroke-width="0.01718078346601466" stroke="#231f20"></path></g><g clip-path="url(#SvgjsClipPath10007edadc5f-7fea-4933-a38a-3b3e614b7155)"><path d=" M -1.230417418236579 0.5223170714992301 L -0.5266680071604899 0.5223170714992301" fill="none" transform="matrix(1,0,0,1,0,0)" fill-rule="nonzero" stroke-dasharray="none" stroke-miterlimit="10" stroke-linejoin="miter" stroke-linecap="butt" stroke-width="0.01718078346601466" stroke="#231f20"></path></g><g clip-path="url(#SvgjsClipPath10007edadc5f-7fea-4933-a38a-3b3e614b7155)"><path d=" M -1.230417418236579 0.5691252969936201 L -0.5266680071604899 0.5691252969936201" fill="none" transform="matrix(1,0,0,1,0,0)" fill-rule="nonzero" stroke-dasharray="none" stroke-miterlimit="10" stroke-linejoin="miter" stroke-linecap="butt" stroke-width="0.01718078346601466" stroke="#231f20"></path></g><g clip-path="url(#SvgjsClipPath10007edadc5f-7fea-4933-a38a-3b3e614b7155)"><path d=" M -1.230417418236579 0.6159335224880103 L -0.5266680071604899 0.6159335224880103" fill="none" transform="matrix(1,0,0,1,0,0)" fill-rule="nonzero" stroke-dasharray="none" stroke-miterlimit="10" stroke-linejoin="miter" stroke-linecap="butt" stroke-width="0.01718078346601466" stroke="#231f20"></path></g><g clip-path="url(#SvgjsClipPath10007edadc5f-7fea-4933-a38a-3b3e614b7155)"><path d=" M -1.2652520892117793 0.626422104505797 L -1.4357179340351398 0.626422104505797 L -1.4357179340351398 0.46672531392825095 L -1.2652520892117793 0.46672531392825095 Z" fill="#67c5f0" transform="matrix(1,0,0,1,0,0)" fill-rule="nonzero"></path></g><g clip-path="url(#SvgjsClipPath10007edadc5f-7fea-4933-a38a-3b3e614b7155)"><path d=" M -1.1182296470927686 0.24576088857990241 L -1.1394198322933788 0.24576088857990241 L -1.1394198322933788 0.2245707033792922 L -1.1182296470927686 0.2245707033792922 Z M -1.0690233530772781 0.24576088857990241 L -1.0902135382778884 0.24576088857990241 L -1.0902135382778884 0.2245707033792922 L -1.0690233530772781 0.2245707033792922 Z M -1.0198004912860252 0.24576088857990241 L -1.0409906764866355 0.24576088857990241 L -1.0409906764866355 0.2245707033792922 L -1.0198004912860252 0.2245707033792922 Z M -0.9705941972705348 0.24576088857990241 L -0.9917843824711449 0.24576088857990241 L -0.9917843824711449 0.2245707033792922 L -0.9705941972705348 0.2245707033792922 Z M -0.9213879032550444 0.24576088857990241 L -0.9425780884556545 0.24576088857990241 L -0.9425780884556545 0.2245707033792922 L -0.9213879032550444 0.2245707033792922 Z M -0.872181609239554 0.24576088857990241 L -0.8933717944401641 0.24576088857990241 L -0.8933717944401641 0.2245707033792922 L -0.872181609239554 0.2245707033792922 Z M -0.8229587474483009 0.24576088857990241 L -0.8441489326489111 0.24576088857990241 L -0.8441489326489111 0.2245707033792922 L -0.822958747448301 0.2245707033792922 Z" fill="#231f20" transform="matrix(1,0,0,1,0,0)" fill-rule="nonzero"></path></g><g clip-path="url(#SvgjsClipPath10007edadc5f-7fea-4933-a38a-3b3e614b7155)"><path d=" M -1.2038850477864 1.0787886539330527 L -0.7955225107851183 1.0787886539330527 L -0.7955225107851183 1.0287042678021343 L -1.2038850477864 1.0287042678021343 Z" fill="#ffffff" transform="matrix(1,0,0,1,0,0)" fill-rule="nonzero"></path></g><g clip-path="url(#b506ef56c-9181-465a-94c4-420f493efbe37edadc5f-7fea-4933-a38a-3b3e614b7155)"><path d=" M -0.7955225107851183 1.0787886539330527 L -1.2038850477864 1.0787886539330527 L -1.2038850477864 1.0287042678021343 L -0.7955225107851183 1.0287042678021343 Z" fill="none" transform="matrix(1,0,0,1,0,0)" fill-rule="nonzero" stroke-dasharray="none" stroke-miterlimit="10" stroke-linejoin="miter" stroke-linecap="butt" stroke-width="0.01732989344787978" stroke="#231f20"></path></g><g clip-path="url(#SvgjsClipPath10007edadc5f-7fea-4933-a38a-3b3e614b7155)"><path d=" M -0.9005604620448937 0.870750692706608 L -0.8692805014047436 1.028707866829061 L -1.1300904274626054 1.028707866829061 L -1.0988104668224552 0.870750692706608 Z" fill="#ffffff" transform="matrix(1,0,0,1,0,0)" fill-rule="nonzero"></path></g><g clip-path="url(#SvgjsClipPath10007edadc5f-7fea-4933-a38a-3b3e614b7155)"><path d=" M -0.9005604620448937 0.870750692706608 L -0.8692805014047436 1.028707866829061 L -1.1300904274626054 1.028707866829061 L -1.0988104668224552 0.870750692706608 Z" fill="none" transform="matrix(1,0,0,1,0,0)" fill-rule="nonzero" stroke-dasharray="none" stroke-miterlimit="10" stroke-linejoin="miter" stroke-linecap="butt" stroke-width="0.01732989344787978" stroke="#231f20"></path></g><g clip-path="url(#c506ef56c-9181-465a-94c4-420f493efbe37edadc5f-7fea-4933-a38a-3b3e614b7155)"><path d=" M -1.5993909907957558 1.079252551654411 L -0.3999999999999999 1.079252551654411" fill="none" transform="matrix(1,0,0,1,0,0)" fill-rule="nonzero" stroke-dasharray="none" stroke-miterlimit="10" stroke-linejoin="miter" stroke-linecap="butt" stroke-width="0.01732989344787978" stroke="#231f20"></path></g></g></g><defs><clipPath id="SvgjsClipPath1001"><path d=" M -1.5993909907957558 -0.025917498378350556 h 1.1993909907957558 v 1.113834996756701 h -1.1993909907957558 Z"></path></clipPath><clipPath id="a506ef56c-9181-465a-94c4-420f493efbe37edadc5f-7fea-4933-a38a-3b3e614b7155"><path d=" M -1.5993909907957558 1.0879174983783508 L -0.3999999999999999 1.0879174983783508 L -0.3999999999999999 -0.025917498378350556 L -1.5993909907957558 -0.025917498378350556 Z"></path></clipPath><clipPath id="SvgjsClipPath10007edadc5f-7fea-4933-a38a-3b3e614b7155"><path d=" M -1.5993909907957558 -0.025917498378350664 L -0.3999999999999999 -0.025917498378350664 L -0.3999999999999999 1.0879174983783504 L -1.5993909907957558 1.0879174983783504 Z"></path></clipPath><clipPath id="b506ef56c-9181-465a-94c4-420f493efbe37edadc5f-7fea-4933-a38a-3b3e614b7155"><path d=" M -1.5993909907957558 1.0879174983783508 L -0.3999999999999999 1.0879174983783508 L -0.3999999999999999 -0.025917498378350556 L -1.5993909907957558 -0.025917498378350556 Z"></path></clipPath><clipPath id="c506ef56c-9181-465a-94c4-420f493efbe37edadc5f-7fea-4933-a38a-3b3e614b7155"><path d=" M -1.5993909907957558 1.0879174983783508 L -0.3999999999999999 1.0879174983783508 L -0.3999999999999999 -0.025917498378350556 L -1.5993909907957558 -0.025917498378350556 Z"></path></clipPath></defs></svg>